<svg id="visual" viewBox="0 0 900 600" width="900" height="600" xmlns="http://www.w3.org/2000/svg" xmlns:xlink="http://www.w3.org/1999/xlink" version="1.1"><rect x="0" y="0" width="900" height="600" fill="#001220"></rect><path d="M0 371L21.5 378.2C43 385.3 86 399.7 128.8 407.8C171.7 416 214.3 418 257.2 413.3C300 408.7 343 397.3 385.8 390.2C428.7 383 471.3 380 514.2 386.3C557 392.7 600 408.3 642.8 418.5C685.7 428.7 728.3 433.3 771.2 428.5C814 423.7 857 409.3 878.5 402.2L900 395L900 601L878.5 601C857 601 814 601 771.2 601C728.3 601 685.7 601 642.8 601C600 601 557 601 514.2 601C471.3 601 428.7 601 385.8 601C343 601 300 601 257.2 601C214.3 601 171.7 601 128.8 601C86 601 43 601 21.5 601L0 601Z" fill="#fa7268"></path><path d="M0 470L21.5 463.3C43 456.7 86 443.3 128.8 444.3C171.7 445.3 214.3 460.7 257.2 459C300 457.3 343 438.7 385.8 433.2C428.7 427.7 471.3 435.3 514.2 435.2C557 435 600 427 642.8 431C685.7 435 728.3 451 771.2 453.7C814 456.3 857 445.7 878.5 440.3L900 435L900 601L878.5 601C857 601 814 601 771.2 601C728.3 601 685.7 601 642.8 601C600 601 557 601 514.2 601C471.3 601 428.7 601 385.8 601C343 601 300 601 257.2 601C214.3 601 171.7 601 128.8 601C86 601 43 601 21.5 601L0 601Z" fill="#ef5f67"></path><path d="M0 458L21.5 463C43 468 86 478 128.8 474.7C171.7 471.3 214.3 454.7 257.2 446.5C300 438.3 343 438.7 385.8 447.7C428.7 456.7 471.3 474.3 514.2 482.8C557 491.3 600 490.7 642.8 489.8C685.7 489 728.3 488 771.2 479.5C814 471 857 455 878.5 447L900 439L900 601L878.5 601C857 601 814 601 771.2 601C728.3 601 685.7 601 642.8 601C600 601 557 601 514.2 601C471.3 601 428.7 601 385.8 601C343 601 300 601 257.2 601C214.3 601 171.7 601 128.8 601C86 601 43 601 21.5 601L0 601Z" fill="#e34c67"></path><path d="M0 491L21.5 489.8C43 488.7 86 486.3 128.8 486C171.7 485.7 214.3 487.3 257.2 494.7C300 502 343 515 385.8 517.2C428.7 519.3 471.3 510.7 514.2 512.3C557 514 600 526 642.8 527.3C685.7 528.7 728.3 519.3 771.2 511.3C814 503.3 857 496.7 878.5 493.3L900 490L900 601L878.5 601C857 601 814 601 771.2 601C728.3 601 685.7 601 642.8 601C600 601 557 601 514.2 601C471.3 601 428.7 601 385.8 601C343 601 300 601 257.2 601C214.3 601 171.7 601 128.8 601C86 601 43 601 21.5 601L0 601Z" fill="#d53867"></path><path d="M0 535L21.5 538.7C43 542.3 86 549.7 128.8 550.7C171.7 551.7 214.3 546.3 257.2 547C300 547.7 343 554.3 385.8 559.5C428.7 564.7 471.3 568.3 514.2 564.2C557 560 600 548 642.8 544.3C685.7 540.7 728.3 545.3 771.2 548.7C814 552 857 554 878.5 555L900 556L900 601L878.5 601C857 601 814 601 771.2 601C728.3 601 685.7 601 642.8 601C600 601 557 601 514.2 601C471.3 601 428.7 601 385.8 601C343 601 300 601 257.2 601C214.3 601 171.7 601 128.8 601C86 601 43 601 21.5 601L0 601Z" fill="#c62368"></path></svg>