<?xml version="1.0" encoding="UTF-8" standalone="no"?>
<!DOCTYPE svg PUBLIC "-//W3C//DTD SVG 1.1//EN" "http://www.w3.org/Graphics/SVG/1.1/DTD/svg11.dtd">
<svg width="100%" height="100%" viewBox="0 0 769 730" version="1.1" xmlns="http://www.w3.org/2000/svg" xmlns:xlink="http://www.w3.org/1999/xlink" xml:space="preserve" xmlns:serif="http://www.serif.com/" style="fill-rule:evenodd;clip-rule:evenodd;stroke-linecap:round;stroke-linejoin:round;stroke-miterlimit:1.5;">
    <g transform="matrix(1,0,0,1,-782.003,-1311.65)">
        <path d="M1068.05,1794.51L1068.05,1440.17C1068.05,1374.99 1120.97,1322.07 1186.16,1322.07C1251.35,1322.07 1304.27,1374.99 1304.27,1440.17L1304.27,1558.29L1422.38,1558.29C1487.57,1558.29 1540.49,1611.21 1540.49,1676.39C1540.49,1741.58 1487.57,1794.51 1422.38,1794.51L1068.05,1794.51Z" style="fill:none;stroke:rgb(214,22,0);stroke-width:20.83px;"/>
        <g transform="matrix(-1.83697e-16,1,1,1.83697e-16,-529.645,490.236)">
            <path d="M1068.05,1794.51L1068.05,1440.17C1068.05,1374.99 1120.97,1322.07 1186.16,1322.07C1251.35,1322.07 1304.27,1374.99 1304.27,1440.17L1304.27,1558.29L1422.38,1558.29C1487.57,1558.29 1540.49,1611.21 1540.49,1676.39C1540.49,1741.58 1487.57,1794.51 1422.38,1794.51L1068.05,1794.51Z" style="fill:none;stroke:rgb(234,128,114);stroke-width:20.83px;"/>
        </g>
    </g>
</svg>
